<svg width="22" height="22" viewBox="0 0 22 22" fill="none" xmlns="http://www.w3.org/2000/svg">
<path d="M9.996 9H10.011M10 15H10.015M6 12H14" stroke="black" stroke-width="1.5" stroke-linecap="round" stroke-linejoin="round"/>
<path d="M16.5 4C17.3284 4 18 4.67157 18 5.5C18 6.32843 17.3284 7 16.5 7C15.6716 7 15 6.32843 15 5.5C15 4.67157 15.6716 4 16.5 4Z" stroke="black" stroke-width="1.5" stroke-linecap="round" stroke-linejoin="round"/>
<path d="M1.77389 10.144C0.770887 11.264 0.749887 12.954 1.66989 14.144C3.4569 16.4638 5.5361 18.543 7.85589 20.33C9.04589 21.25 10.7359 21.229 11.8559 20.226C14.8835 17.5178 17.7284 14.6121 20.3719 11.528C20.6388 11.2212 20.8031 10.8387 20.8419 10.434C21.0059 8.63798 21.3449 3.46398 19.9399 2.05998C18.5349 0.65598 13.3619 0.99398 11.5659 1.15898C11.1611 1.19776 10.7786 1.36209 10.4719 1.62898C7.38776 4.27219 4.48207 7.11675 1.77389 10.144Z" stroke="black" stroke-width="1.5" stroke-linecap="round" stroke-linejoin="round"/>
</svg>
