<svg width="22" height="22" viewBox="0 0 22 22" fill="none" xmlns="http://www.w3.org/2000/svg">
<path d="M6.3539 17C4.2309 17 3.16889 17 2.41389 16.547C1.92337 16.2554 1.52484 15.8315 1.26389 15.324C0.871895 14.554 0.976895 13.537 1.18889 11.502C1.36489 9.804 1.4529 8.955 1.8869 8.331C2.17189 7.921 2.55689 7.586 3.00789 7.354C3.69489 7 4.5819 7 6.3539 7H15.6459C17.4179 7 18.3049 7 18.9919 7.354C19.4429 7.586 19.8279 7.921 20.1129 8.331C20.5469 8.955 20.6349 9.804 20.8109 11.503C21.0229 13.537 21.1279 14.555 20.7349 15.324C20.4745 15.8313 20.0767 16.2551 19.5869 16.547C18.8299 17 17.7689 17 15.6459 17M15.9999 7V5C15.9999 3.114 15.9999 2.172 15.4139 1.586C14.8279 1 13.8859 1 11.9999 1H9.9999C8.1139 1 7.1719 1 6.5859 1.586C5.9999 2.172 5.9999 3.114 5.9999 5V7" stroke="black" stroke-width="1.5" stroke-linecap="round" stroke-linejoin="round"/>
<path d="M12.9889 15H9.00995C8.32495 15 7.98195 15 7.68995 15.109C7.29324 15.2606 6.95997 15.5428 6.74495 15.909C6.57695 16.19 6.49395 16.551 6.32795 17.272C6.06795 18.4 5.93795 18.963 6.02695 19.415C6.14395 20.017 6.51095 20.527 7.02195 20.797C7.40395 21 7.93995 21 9.00995 21H12.9879C14.0579 21 14.5939 21 14.9759 20.797C15.4859 20.527 15.8539 20.017 15.9709 19.415C16.0599 18.963 15.9299 18.4 15.6709 17.272C15.5039 16.552 15.4209 16.19 15.2529 15.91C15.0379 15.5432 14.7042 15.2607 14.3069 15.109C14.0169 15 13.6739 15 12.9879 15M16.9999 11H17.0089" stroke="black" stroke-width="1.5" stroke-linecap="round" stroke-linejoin="round"/>
</svg>
