<svg width="22" height="22" viewBox="0 0 22 22" fill="none" xmlns="http://www.w3.org/2000/svg">
<path d="M20.3179 6.14108L19.8239 5.28508C19.4509 4.63708 19.2639 4.31308 18.9459 4.18408C18.6289 4.05408 18.2699 4.15708 17.5509 4.36008L16.3309 4.70408C15.8719 4.81008 15.3909 4.75008 14.9729 4.53408L14.6359 4.34008C14.2769 4.11 14.0008 3.77118 13.8479 3.37308L13.5139 2.37508C13.2939 1.71508 13.1839 1.38508 12.9229 1.19708C12.6619 1.00708 12.3139 1.00708 11.6199 1.00708H10.5049C9.81093 1.00708 9.46393 1.00708 9.20193 1.19708C8.94093 1.38508 8.83193 1.71508 8.61193 2.37508L8.27793 3.37308C8.12481 3.77132 7.84834 4.11016 7.48893 4.34008L7.15193 4.53508C6.73393 4.75008 6.25193 4.81008 5.79393 4.70508L4.57393 4.36008C3.85493 4.15708 3.49593 4.05508 3.17893 4.18408C2.86093 4.31308 2.67393 4.63708 2.30093 5.28408L1.80793 6.14108C1.45793 6.74908 1.28293 7.05208 1.31693 7.37508C1.35093 7.69908 1.58493 7.95908 2.05293 8.48008L3.08393 9.63308C3.33593 9.95208 3.51493 10.5081 3.51493 11.0081C3.51493 11.5081 3.33593 12.0641 3.08493 12.3831L2.05293 13.5351C1.58493 14.0561 1.35093 14.3171 1.31693 14.6401C1.28293 14.9631 1.45693 15.2671 1.80693 15.8741L2.30093 16.7311C2.67393 17.3781 2.86093 17.7021 3.17893 17.8311C3.49693 17.9601 3.85493 17.8591 4.57393 17.6551L5.79393 17.3111C6.25282 17.206 6.73405 17.2662 7.15293 17.4811L7.48893 17.6751C7.84893 17.9051 8.12493 18.2451 8.27693 18.6431L8.61093 19.6401C8.83093 20.3001 8.94093 20.6301 9.20193 20.8201C9.46393 21.0081 9.81093 21.0081 10.5049 21.0081H11.6199C12.3139 21.0081 12.6619 21.0081 12.9229 20.8191C13.1839 20.6301 13.2939 20.3001 13.5129 19.6401L13.8479 18.6431C13.9999 18.2441 14.2759 17.9051 14.6359 17.6751L14.9719 17.4811C15.3919 17.2661 15.8719 17.2051 16.3319 17.3111L17.5519 17.6551C18.2699 17.8591 18.6289 17.9611 18.9459 17.8321C19.2639 17.7021 19.4509 17.3781 19.8239 16.7311L20.3169 15.8741C20.6669 15.2671 20.8419 14.9641 20.8079 14.6401C20.7739 14.3161 20.5399 14.0561 20.0719 13.5351L19.0409 12.3831C18.7889 12.0631 18.6099 11.5081 18.6099 11.0081C18.6099 10.5081 18.7889 9.95208 19.0399 9.63308L20.0719 8.48008C20.5399 7.96008 20.7739 7.69908 20.8079 7.37508C20.8419 7.05108 20.6679 6.74908 20.3179 6.14108Z" stroke="black" stroke-width="1.5" stroke-linecap="round" stroke-linejoin="round"/>
<path d="M14.52 11C14.52 11.9283 14.1513 12.8185 13.4949 13.4749C12.8385 14.1313 11.9483 14.5 11.02 14.5C10.0918 14.5 9.20152 14.1313 8.54515 13.4749C7.88877 12.8185 7.52002 11.9283 7.52002 11C7.52002 10.0717 7.88877 9.1815 8.54515 8.52513C9.20152 7.86875 10.0918 7.5 11.02 7.5C11.9483 7.5 12.8385 7.86875 13.4949 8.52513C14.1513 9.1815 14.52 10.0717 14.52 11Z" stroke="black" stroke-width="1.5" stroke-linecap="round" stroke-linejoin="round"/>
</svg>
